<svg aria-hidden="true" style="position: absolute; width: 0; height: 0; overflow: hidden;" version="1.1" xmlns="http://www.w3.org/2000/svg" xmlns:xlink="http://www.w3.org/1999/xlink">
<defs>
<symbol id="untitled" viewBox="0 0 39 32">
<path d="M0 32v-10.706c0-4 0.704-7.686 2.113-11.059s3.796-6.784 7.162-10.235l6.105 4.824c-1.957 1.961-3.444 3.804-4.462 5.529s-1.683 3.49-1.996 5.294h7.514v16.353h-16.438zM22.896 32v-10.706c0-4 0.704-7.686 2.113-11.059s3.796-6.784 7.162-10.235l6.105 4.824c-1.957 1.961-3.444 3.804-4.462 5.529s-1.683 3.49-1.996 5.294h7.514v16.353h-16.438z"></path>
</symbol>
<symbol id="facebook" viewBox="0 0 13 32">
<path d="M11.093 1.92c0.32 0 0.64 0 1.28 0v4.8c-0.32 0-0.96 0-1.6 0s-1.28 0-1.6 0.32c-0.32 0.32-0.32 0.64-0.32 1.387 0 0.64 0 1.067 0 1.707h3.52v4.053h-3.52v17.6h-5.44v-17.707h-2.88v-4.053h2.88v-1.387c0-2.347 0.32-4.053 0.96-4.8 0.96-1.387 2.88-2.027 5.76-2.027 0.32 0.107 0.64 0.107 0.96 0.107z"></path>
</symbol>
<symbol id="instagram" viewBox="0 0 32 32">
<path d="M28.718 10.756c-0.016-1.074-0.215-2.14-0.596-3.145-0.667-1.716-2.024-3.073-3.743-3.737-0.994-0.373-2.044-0.573-3.108-0.596-1.368-0.061-1.801-0.078-5.273-0.078s-3.916 0-5.274 0.078c-1.062 0.023-2.112 0.223-3.106 0.596-1.719 0.664-3.078 2.021-3.743 3.737-0.374 0.992-0.576 2.041-0.596 3.101-0.061 1.367-0.080 1.8-0.080 5.265s0 3.909 0.080 5.265c0.021 1.062 0.222 2.109 0.596 3.104 0.667 1.715 2.024 3.071 3.744 3.736 0.989 0.386 2.040 0.604 3.106 0.639 1.369 0.061 1.803 0.080 5.274 0.080s3.916 0 5.274-0.080c1.062-0.021 2.112-0.221 3.108-0.595 1.719-0.666 3.076-2.022 3.743-3.737 0.374-0.994 0.574-2.041 0.596-3.104 0.061-1.365 0.080-1.798 0.080-5.265-0.003-3.466-0.003-3.906-0.082-5.264zM15.99 22.531c-3.631 0-6.572-2.936-6.572-6.561s2.941-6.561 6.572-6.561c3.628 0 6.572 2.936 6.572 6.561s-2.944 6.561-6.572 6.561zM22.824 10.696c-0.849 0-1.532-0.684-1.532-1.53s0.684-1.53 1.532-1.53c0.846 0 1.531 0.684 1.531 1.53s-0.685 1.53-1.531 1.53z"></path>
<path d="M15.992 19.976c2.211 0 4.004-1.793 4.004-4.004s-1.793-4.004-4.004-4.004-4.004 1.793-4.004 4.004c0 2.211 1.793 4.004 4.004 4.004z"></path>
</symbol>
<symbol id="youtube" viewBox="0 0 32 32">
<path d="M30.112 9.356c0 0-0.288-2.080-1.152-2.971-1.056-1.189-2.304-1.189-2.88-1.288-4.032-0.297-10.080-0.297-10.080-0.297s-6.048 0-10.080 0.297c-0.576 0.099-1.824 0.099-2.88 1.288-0.864 0.891-1.152 2.971-1.152 2.971s-0.288 2.377-0.288 4.754v2.179c0 2.377 0.288 4.853 0.288 4.853s0.288 2.080 1.152 2.971c1.056 1.189 2.496 1.189 3.168 1.288 2.304 0.099 9.792 0.198 9.792 0.198s6.048 0 10.080-0.297c0.576-0.099 1.824-0.099 2.88-1.288 0.864-0.891 1.152-2.971 1.152-2.971s0.288-2.377 0.288-4.754v-2.179c0-2.377-0.288-4.754-0.288-4.754zM13.024 19.063v-8.32l7.776 4.16-7.776 4.16z"></path>
</symbol>
</defs>
</svg>
